<svg width="704" height="177" viewBox="0 0 704 177" fill="none" xmlns="http://www.w3.org/2000/svg">
<path d="M0.900024 2.60002H33.1C37.5667 2.60002 41.3667 3.26669 44.5 4.60002C47.6334 5.86669 50.1667 7.56669 52.1 9.70002C54.1 11.8334 55.5334 14.3 56.4 17.1C57.3334 19.8334 57.8 22.6334 57.8 25.5C57.8 28.4334 57.3334 31.2667 56.4 34C55.5334 36.7334 54.1 39.1667 52.1 41.3C50.1667 43.4334 47.6334 45.1667 44.5 46.5C41.3667 47.7667 37.5667 48.4 33.1 48.4H16.6V74H0.900024V2.60002ZM28.8 36.2C30.6 36.2 32.3334 36.0667 34 35.8C35.6667 35.5334 37.1334 35.0334 38.4 34.3C39.6667 33.5 40.6667 32.4 41.4 31C42.2 29.6 42.6 27.7667 42.6 25.5C42.6 23.2334 42.2 21.4 41.4 20C40.6667 18.6 39.6667 17.5334 38.4 16.8C37.1334 16 35.6667 15.4667 34 15.2C32.3334 14.9334 30.6 14.8 28.8 14.8H16.6V36.2H28.8Z" fill="#EFEDE7"/>
<path d="M82.0992 2.60002H98.1992L124.899 74H108.599L103.199 58.1H76.4992L70.8992 74H55.0992L82.0992 2.60002ZM99.0992 46.4L90.0992 20.2H89.8992L80.5992 46.4H99.0992Z" fill="#EFEDE7"/>
<path d="M152.156 75.6C142.356 75.6 134.79 73.3667 129.456 68.9C124.123 64.3667 121.39 58.0667 121.256 50H136.756C136.823 52.4 137.256 54.4667 138.056 56.2C138.923 57.9334 140.023 59.3667 141.356 60.5C142.756 61.5667 144.356 62.3667 146.156 62.9C148.023 63.3667 150.023 63.6 152.156 63.6C155.823 63.6 158.79 62.5 161.056 60.3C163.323 58.0334 164.456 55.2667 164.456 52C164.456 50 164.09 48.3667 163.356 47.1C162.623 45.7667 161.623 44.7334 160.356 44C159.09 43.2 157.656 42.6667 156.056 42.4C154.456 42.1334 152.79 42 151.056 42H145.656V31.4C146.256 31.4667 146.99 31.5 147.856 31.5C148.723 31.5 149.39 31.5 149.856 31.5C158.456 31.5 162.756 28.2667 162.756 21.8C162.756 19 161.756 16.8334 159.756 15.3C157.823 13.7667 155.256 13 152.056 13C148.19 13 145.09 13.9334 142.756 15.8C140.49 17.6667 139.19 20.3334 138.856 23.8H124.056C124.123 19.8 124.923 16.3667 126.456 13.5C127.99 10.6334 130.023 8.26669 132.556 6.40002C135.156 4.53335 138.123 3.16669 141.456 2.30002C144.856 1.36669 148.423 0.900024 152.156 0.900024C155.756 0.900024 159.09 1.40002 162.156 2.40002C165.29 3.33336 167.956 4.66669 170.156 6.40002C172.423 8.13335 174.19 10.2334 175.456 12.7C176.79 15.1 177.456 17.8 177.456 20.8C177.456 24.4 176.456 27.5 174.456 30.1C172.456 32.7 169.856 34.3667 166.656 35.1C168.523 35.4334 170.29 36.0667 171.956 37C173.623 37.9334 175.056 39.1334 176.256 40.6C177.456 42 178.39 43.6667 179.056 45.6C179.79 47.5334 180.156 49.6334 180.156 51.9C180.156 55.3667 179.423 58.5667 177.956 61.5C176.556 64.3667 174.59 66.8667 172.056 69C169.59 71.0667 166.656 72.7 163.256 73.9C159.856 75.0334 156.156 75.6 152.156 75.6Z" fill="#EFEDE7"/>
<path d="M185.802 4H218.002C222.469 4 226.269 4.66667 229.402 6C232.536 7.26667 235.069 8.96667 237.002 11.1C239.002 13.2333 240.436 15.7 241.302 18.5C242.236 21.2333 242.702 24.0333 242.702 26.9C242.702 29.8333 242.236 32.6667 241.302 35.4C240.436 38.1333 239.002 40.5667 237.002 42.7C235.069 44.8333 232.536 46.5667 229.402 47.9C226.269 49.1667 222.469 49.8 218.002 49.8H201.502L199.5 176.4H185.802V4ZM213.702 37.6C215.502 37.6 217.236 37.4667 218.902 37.2C220.569 36.9333 222.036 36.4333 223.302 35.7C224.569 34.9 225.569 33.8 226.302 32.4C227.102 31 227.502 29.1667 227.502 26.9C227.502 24.6333 227.102 22.8 226.302 21.4C225.569 20 224.569 18.9333 223.302 18.2C222.036 17.4 220.569 16.8667 218.902 16.6C217.236 16.3333 215.502 16.2 213.702 16.2H201.502V37.6H213.702Z" fill="#EFEDE7"/>
<path d="M267.002 2.60002H283.102L309.802 74H293.502L288.102 58.1H261.402L255.802 74H240.002L267.002 2.60002ZM284.002 46.4L275.002 20.2H274.802L265.502 46.4H284.002Z" fill="#EFEDE7"/>
<path d="M310.959 2.60002H363.959V15.5H326.659V29H345.259C348.859 29 352.192 29.4334 355.259 30.3C358.325 31.1667 360.992 32.5334 363.259 34.4C365.525 36.2 367.292 38.5334 368.559 41.4C369.892 44.2 370.559 47.5334 370.559 51.4C370.559 55.3334 369.925 58.7334 368.659 61.6C367.392 64.4 365.592 66.7334 363.259 68.6C360.992 70.4667 358.259 71.8334 355.059 72.7C351.859 73.5667 348.325 74 344.459 74H310.959V2.60002ZM342.759 61.2C346.559 61.2 349.525 60.5 351.659 59.1C353.792 57.6334 354.859 55 354.859 51.2C354.859 49.3334 354.559 47.7667 353.959 46.5C353.359 45.2334 352.492 44.2334 351.359 43.5C350.292 42.7 348.992 42.1334 347.459 41.8C345.992 41.4667 344.392 41.3 342.659 41.3H326.659V61.2H342.759Z" fill="#EFEDE7"/>
<path d="M408.173 75.6C402.64 75.6 397.707 74.6667 393.373 72.8C389.04 70.8667 385.373 68.2334 382.373 64.9C379.373 61.5667 377.073 57.6667 375.473 53.2C373.873 48.6667 373.073 43.8 373.073 38.6C373.073 33.3334 373.873 28.4 375.473 23.8C377.073 19.2 379.373 15.2 382.373 11.8C385.373 8.40002 389.04 5.73336 393.373 3.80002C397.707 1.86669 402.64 0.900024 408.173 0.900024C413.64 0.900024 418.54 1.86669 422.873 3.80002C427.273 5.73336 430.973 8.40002 433.973 11.8C436.973 15.2 439.273 19.2 440.873 23.8C442.473 28.4 443.273 33.3334 443.273 38.6C443.273 43.8 442.473 48.6667 440.873 53.2C439.273 57.6667 436.973 61.5667 433.973 64.9C430.973 68.2334 427.273 70.8667 422.873 72.8C418.54 74.6667 413.64 75.6 408.173 75.6ZM408.173 62.5C411.707 62.5 414.707 61.8334 417.173 60.5C419.64 59.1 421.64 57.2667 423.173 55C424.707 52.7334 425.807 50.2 426.473 47.4C427.207 44.5334 427.573 41.6 427.573 38.6C427.573 35.4667 427.207 32.4334 426.473 29.5C425.807 26.5667 424.707 23.9667 423.173 21.7C421.64 19.3667 419.64 17.5334 417.173 16.2C414.707 14.8 411.707 14.1 408.173 14.1C404.64 14.1 401.64 14.8 399.173 16.2C396.707 17.5334 394.707 19.3667 393.173 21.7C391.64 23.9667 390.507 26.5667 389.773 29.5C389.107 32.4334 388.773 35.4667 388.773 38.6C388.773 41.6 389.107 44.5334 389.773 47.4C390.507 50.2 391.64 52.7334 393.173 55C394.707 57.2667 396.707 59.1 399.173 60.5C401.64 61.8334 404.64 62.5 408.173 62.5Z" fill="#EFEDE7"/>
<path d="M464.805 15.8H443.405V2.60002H501.905V15.8H480.505V74H464.805V15.8Z" fill="#EFEDE7"/>
<path d="M543.538 46.9C541.805 47.3 539.705 47.7334 537.238 48.2C534.772 48.6667 532.205 48.9 529.538 48.9C525.205 48.9 521.372 48.4667 518.038 47.6C514.705 46.7334 511.905 45.3334 509.638 43.4C507.372 41.4 505.638 38.8334 504.438 35.7C503.305 32.5 502.738 28.6 502.738 24V2.60002H518.338V24.2C518.338 28.5334 519.538 31.5667 521.938 33.3C524.405 35.0334 527.572 35.9 531.438 35.9C533.972 35.9 536.338 35.7 538.538 35.3C540.738 34.9 542.405 34.5667 543.538 34.3V2.60002H559.238V74H543.538V46.9Z" fill="#EFEDE7"/>
<path d="M568.107 2.60002H583.707V52.1H584.007L611.207 2.60002H628.807V74H613.207V24.4H612.907L585.707 74H568.107V2.60002Z" fill="#EFEDE7"/>
<path d="M637.619 2.60002H653.319V31.2L681.219 2.60002H700.819L670.019 32.5L703.519 74H683.819L658.619 42.3L653.319 48V74H637.619V2.60002Z" fill="#EFEDE7"/>
</svg>
