<svg width="513" height="195" viewBox="0 0 513 195" fill="none" xmlns="http://www.w3.org/2000/svg">
<path d="M0.900024 121.6V193H16.6V163.5H46.5V151.3H16.6V134.8H51.1V121.6H0.900024Z" fill="#E73C3C"/>
<path d="M70.8774 153.9V133.8H88.0774C91.6774 133.8 94.3774 134.6 96.1774 136.2C97.9774 137.733 98.8774 140.233 98.8774 143.7C98.8774 147.3 97.9774 149.9 96.1774 151.5C94.3774 153.1 91.6774 153.9 88.0774 153.9H70.8774ZM55.1774 121.6V193H70.8774V165.1H86.5774C90.5107 165.1 93.344 165.967 95.0774 167.7C96.8107 169.433 97.944 172.167 98.4774 175.9C98.8774 178.767 99.1774 181.767 99.3774 184.9C99.5774 188.033 100.111 190.733 100.977 193H116.677C115.944 192 115.377 190.8 114.977 189.4C114.644 187.933 114.377 186.4 114.177 184.8C114.044 183.2 113.944 181.633 113.877 180.1C113.811 178.567 113.744 177.233 113.677 176.1C113.544 174.3 113.277 172.5 112.877 170.7C112.544 168.9 111.977 167.267 111.177 165.8C110.377 164.267 109.344 162.967 108.077 161.9C106.811 160.767 105.211 159.933 103.277 159.4V159.2C107.277 157.6 110.144 155.267 111.877 152.2C113.677 149.133 114.577 145.5 114.577 141.3C114.577 138.567 114.077 136.033 113.077 133.7C112.144 131.3 110.744 129.2 108.877 127.4C107.077 125.6 104.877 124.2 102.277 123.2C99.744 122.133 96.8774 121.6 93.6774 121.6H55.1774Z" fill="#E73C3C"/>
<path d="M134.945 157.6C134.945 154.467 135.279 151.433 135.945 148.5C136.679 145.567 137.812 142.967 139.345 140.7C140.879 138.367 142.879 136.533 145.345 135.2C147.812 133.8 150.812 133.1 154.345 133.1C157.879 133.1 160.879 133.8 163.345 135.2C165.812 136.533 167.812 138.367 169.345 140.7C170.879 142.967 171.979 145.567 172.645 148.5C173.379 151.433 173.745 154.467 173.745 157.6C173.745 160.6 173.379 163.533 172.645 166.4C171.979 169.2 170.879 171.733 169.345 174C167.812 176.267 165.812 178.1 163.345 179.5C160.879 180.833 157.879 181.5 154.345 181.5C150.812 181.5 147.812 180.833 145.345 179.5C142.879 178.1 140.879 176.267 139.345 174C137.812 171.733 136.679 169.2 135.945 166.4C135.279 163.533 134.945 160.6 134.945 157.6ZM119.245 157.6C119.245 162.8 120.045 167.667 121.645 172.2C123.245 176.667 125.545 180.567 128.545 183.9C131.545 187.233 135.212 189.867 139.545 191.8C143.945 193.667 148.879 194.6 154.345 194.6C159.879 194.6 164.812 193.667 169.145 191.8C173.479 189.867 177.145 187.233 180.145 183.9C183.145 180.567 185.445 176.667 187.045 172.2C188.645 167.667 189.445 162.8 189.445 157.6C189.445 152.267 188.645 147.333 187.045 142.8C185.445 138.2 183.145 134.2 180.145 130.8C177.145 127.4 173.479 124.733 169.145 122.8C164.812 120.867 159.879 119.9 154.345 119.9C148.879 119.9 143.945 120.867 139.545 122.8C135.212 124.733 131.545 127.4 128.545 130.8C125.545 134.2 123.245 138.2 121.645 142.8C120.045 147.333 119.245 152.267 119.245 157.6Z" fill="#E73C3C"/>
<path d="M195.177 121.6V193H209.877V145.2H210.077L239.777 193H255.477L254.5 0H240.777V169.5H240.577L210.777 121.6H195.177Z" fill="#E73C3C"/>
<path d="M280.098 134.8V193H295.798V134.8H317.198V121.6H258.698V134.8H280.098Z" fill="#E73C3C"/>
<path d="M320.431 121.6V193H374.631V179.8H336.131V162.3H370.731V150.1H336.131V134.8H373.831V121.6H320.431Z" fill="#E73C3C"/>
<path d="M380.275 121.6V193H394.975V145.2H395.175L424.875 193H440.575V121.6H425.875V169.5H425.675L395.875 121.6H380.275Z" fill="#E73C3C"/>
<path d="M465.096 179.8V134.8H476.296C480.163 134.8 483.396 135.367 485.996 136.5C488.663 137.567 490.796 139.133 492.396 141.2C493.996 143.267 495.129 145.767 495.796 148.7C496.529 151.567 496.896 154.8 496.896 158.4C496.896 162.333 496.396 165.667 495.396 168.4C494.396 171.133 493.063 173.367 491.396 175.1C489.729 176.767 487.829 177.967 485.696 178.7C483.563 179.433 481.363 179.8 479.096 179.8H465.096ZM449.396 121.6V193H480.196C485.663 193 490.396 192.1 494.396 190.3C498.463 188.433 501.829 185.9 504.496 182.7C507.229 179.5 509.263 175.7 510.596 171.3C511.929 166.9 512.596 162.1 512.596 156.9C512.596 150.967 511.763 145.8 510.096 141.4C508.496 137 506.229 133.333 503.296 130.4C500.429 127.467 496.996 125.267 492.996 123.8C489.063 122.333 484.796 121.6 480.196 121.6H449.396Z" fill="#E73C3C"/>
</svg>
